SplineFontDB: 3.0
FontName: Oxygen-Regular
FullName: Oxygen Regular
FamilyName: Oxygen
Weight: Normal
Copyright: 2013 Copyright Vernon Adams
Version: 0.45
ItalicAngle: 0
UnderlinePosition: 0
UnderlineWidth: 0
Ascent: 1537
Descent: 511
sfntRevision: 0x00000b85
LayerCount: 2
Layer: 0 0 "Back"  1
Layer: 1 0 "Fore"  0
XUID: [1021 913 -2060267417 13717738]
FSType: 4
OS2Version: 3
OS2_WeightWidthSlopeOnly: 0
OS2_UseTypoMetrics: 1
CreationTime: 1383259377
ModificationTime: 1383285909
PfmFamily: 81
TTFWeight: 400
TTFWidth: 5
LineGap: 200
VLineGap: 0
OS2TypoAscent: 1785
OS2TypoAOffset: 0
OS2TypoDescent: -484
OS2TypoDOffset: 0
OS2TypoLinegap: 200
OS2WinAscent: 1785
OS2WinAOffset: 0
OS2WinDescent: 484
OS2WinDOffset: 0
HheadAscent: 1785
HheadAOffset: 0
HheadDescent: -484
HheadDOffset: 0
OS2Vendor: 'newt'
MarkAttachClasses: 1
DEI: 91125
LangName: 1033 "2013 +AKkA Vernon Adams" "Oxygen Regular" "" "0.045;newt;Oxygen-Regular" "Oxygen" "Version 0.045;PS 0.45;hotconv 1.0.70;makeotf.lib2.5.5900" "" "Oxygen Font is a trademark of Vernon Adams" "Vernon Adams" "Vernon Adams" "" "http://www.oxygenfont.com" "http://code.newtypography.co.uk" "" "" "" "Oxygen" "" "Oxygen Regular" 
Encoding: UnicodeBmp
Compacted: 1
UnicodeInterp: none
NameList: Adobe Glyph List
DisplaySize: -48
AntiAlias: 1
FitToEm: 1
WinInfo: 0 25 11
BeginPrivate: 9
BlueValues 37 [-20 0 1082 1106 1456 1476 1559 1560]
OtherBlues 11 [-456 -410]
BlueFuzz 1 1
BlueScale 8 0.039625
BlueShift 1 7
StdHW 5 [126]
StdVW 5 [176]
StemSnapH 36 [96 102 107 113 122 126 131 137 142]
StemSnapV 21 [124 158 164 170 176]
EndPrivate
BeginChars: 65551 128

StartChar: onehalf
Encoding: 189 189 0
Width: 1647
Flags: W
HStem: 0 114<1218 1562> 593 112<35 183 321 460> 751 120<1147.24 1407.94> 1456 20G<190 321 1169.7 1313>
VStem: 183 138<705 1333> 1444 132<484.38 713.384>
LayerCount: 2
Fore
SplineSet
1041 0 m 1
 1041 110 l 1
 1289 358 l 2
 1404 474 1444 536 1444 607 c 0
 1444 705 1373 751 1291 751 c 0
 1213 751 1130 716 1072 637 c 1
 1000 716 l 1
 1053 812 1178 871 1293 871 c 0
 1445 871 1576 782 1576 615 c 0
 1576 474 1513 402 1389 281 c 2
 1218 114 l 1
 1568 114 l 1
 1562 0 l 1
 1041 0 l 1
35 593 m 1
 35 705 l 1
 183 705 l 1
 183 1333 l 1
 146 1309 54 1272 26 1259 c 1
 26 1373 l 1
 56 1386 169 1437 211 1476 c 1
 321 1476 l 1
 321 705 l 1
 460 705 l 1
 460 593 l 1
 35 593 l 1
274 0 m 1
 1182 1476 l 1
 1313 1476 l 1
 406 0 l 1
 274 0 l 1
EndSplineSet
EndChar

StartChar: onequarter
Encoding: 188 188 1
Width: 1590
Flags: W
HStem: 0 21G<281 425.29 1268 1395> 191 106<1002 1267 1396 1509> 593 112<42 190 328 467> 1456 20G<197 328 1176.7 1320>
VStem: 190 138<705 1333> 1267 129<0 191 297 690>
LayerCount: 2
Fore
SplineSet
1002 297 m 1
 1267 297 l 1
 1267 690 l 1
 1002 297 l 1
1268 0 m 1
 1268 191 l 1
 863 191 l 1
 863 284 l 1
 1258 857 l 1
 1396 857 l 1
 1396 297 l 1
 1509 297 l 1
 1517 191 l 1
 1395 191 l 1
 1395 0 l 1
 1268 0 l 1
281 0 m 1
 1189 1476 l 1
 1320 1476 l 1
 413 0 l 1
 281 0 l 1
42 593 m 1
 42 705 l 1
 190 705 l 1
 190 1333 l 1
 153 1309 61 1272 33 1259 c 1
 33 1373 l 1
 63 1386 176 1437 218 1476 c 1
 328 1476 l 1
 328 705 l 1
 467 705 l 1
 467 593 l 1
 42 593 l 1
EndSplineSet
EndChar

StartChar: threequarters
Encoding: 190 190 2
Width: 1476
Flags: W
HStem: 0 21G<157 301.29 1144 1271> 191 106<878 1143 1272 1385> 684 105<32.5293 282.692> 1047 104<68 267> 1373 104<34.2896 277.331>
VStem: 294 120<1181.7 1355.1> 312 120<817.257 1010.01> 1143 129<0 191 297 690>
LayerCount: 2
Fore
SplineSet
878 297 m 1xf9
 1143 297 l 1
 1143 690 l 1
 878 297 l 1xf9
193 684 m 0
 118 684 17 708 -34 765 c 1
 7 853 l 1
 50 813 126 789 182 789 c 0
 254 789 312 830 312 921 c 0xfb
 312 1005 236 1047 135 1047 c 2
 68 1047 l 1
 68 1151 l 1
 132 1151 l 2
 224 1151 294 1189 294 1264 c 0
 294 1338 248 1373 184 1373 c 0
 123 1373 45 1346 10 1309 c 1
 -36 1389 l 1
 11 1445 109 1477 189 1477 c 0
 303 1477 414 1407 414 1266 c 0xfd
 414 1209 379 1130 283 1107 c 1
 378 1078 432 1006 432 917 c 0xfb
 432 772 326 684 193 684 c 0
1144 0 m 1
 1144 191 l 1
 739 191 l 1
 739 284 l 1
 1134 857 l 1
 1272 857 l 1
 1272 297 l 1
 1385 297 l 1
 1393 191 l 1
 1271 191 l 1
 1271 0 l 1
 1144 0 l 1
157 0 m 1
 1065 1476 l 1
 1196 1476 l 1
 289 0 l 1
 157 0 l 1
EndSplineSet
EndChar

StartChar: brokenbar
Encoding: 166 166 3
Width: 653
Flags: W
VStem: 268 124<-208 554 825 1584>
LayerCount: 2
Fore
SplineSet
392 825 m 1
 268 825 l 1
 268 1584 l 1
 392 1584 l 1
 392 825 l 1
392 -208 m 1
 268 -208 l 1
 268 554 l 1
 392 554 l 1
 392 -208 l 1
EndSplineSet
EndChar

StartChar: exclam
Encoding: 33 33 5
Width: 710
Flags: W
HStem: -13 235<248.489 433.511> 1437 20G<253 429>
VStem: 226 230<9.04297 200.01> 253 176<1111.06 1457>
LayerCount: 2
Fore
SplineSet
311 429 m 1xd0
 253 1335 l 1
 253 1457 l 1
 429 1457 l 1
 429 1335 l 1
 377 429 l 1
 311 429 l 1xd0
341 -13 m 0
 261 -13 226 47 226 105 c 0
 226 162 261 222 341 222 c 0
 421 222 456 162 456 105 c 0xe0
 456 45 421 -13 341 -13 c 0
EndSplineSet
EndChar

StartChar: quotedbl
Encoding: 34 34 6
Width: 823
Flags: W
HStem: 928 632<201 276 487 563>
VStem: 201 198<1486.34 1560> 201 75<928 1001.66> 487 188<1479.1 1560> 487 76<928 1008.9>
LayerCount: 2
Fore
SplineSet
487 928 m 1x88
 487 1560 l 1
 675 1560 l 1x90
 563 928 l 1
 487 928 l 1x88
201 928 m 1xa0
 201 1560 l 1
 399 1560 l 1xc0
 276 928 l 1
 201 928 l 1xa0
EndSplineSet
EndChar

StartChar: numbersign
Encoding: 35 35 7
Width: 1164
Flags: W
HStem: -20 21G<170 277.069 578 683.026> 442 94<78 263 385 670 792 1004> 992 91<190 374 498 783 903 1100> 1539 20G<491.672 601 901.63 1006>
LayerCount: 2
Fore
SplineSet
578 -20 m 1
 670 442 l 1
 367 442 l 1
 273 -20 l 1
 170 -20 l 1
 263 442 l 1
 65 442 l 1
 78 536 l 1
 281 536 l 1
 374 992 l 1
 177 992 l 1
 190 1083 l 1
 393 1083 l 1
 496 1559 l 1
 601 1559 l 1
 498 1083 l 1
 802 1083 l 1
 906 1559 l 1
 1006 1559 l 1
 903 1083 l 1
 1115 1083 l 1
 1100 992 l 1
 885 992 l 1
 792 536 l 1
 1019 536 l 1
 1004 442 l 1
 772 442 l 1
 679 -20 l 1
 578 -20 l 1
690 536 m 1
 783 992 l 1
 479 992 l 1
 385 536 l 1
 690 536 l 1
EndSplineSet
EndChar

StartChar: dollar
Encoding: 36 36 8
Width: 1221
Flags: W
HStem: -18 141<376.51 550 676 814.23> 1334 140<400.275 555 693 840.299>
VStem: 124 177<981.273 1243.65> 550 97<-278 -148.976> 590 103<1657.61 1785> 936 165<233.496 523.181>
LayerCount: 2
Fore
SplineSet
616 1334 m 0xec
 443 1334 301 1282 301 1107 c 0
 301 971 368 945 608 849 c 0
 918 724 1101 676 1101 381 c 0
 1101 106 891 2 676 -17 c 1
 647 -278 l 1
 550 -278 l 1
 550 -18 l 1xf4
 349 -6 196 74 120 164 c 1
 214 261 l 1
 226 261 l 1
 324 166 466 123 602 123 c 0
 794 123 936 192 936 385 c 0
 936 548 845 575 543 700 c 0
 278 810 124 856 124 1086 c 0
 124 1369 325 1459 555 1474 c 1
 590 1785 l 1
 693 1785 l 1
 693 1473 l 1
 849 1460 989 1399 1082 1297 c 1
 993 1195 l 1
 979 1195 l 1
 900 1281 769 1334 616 1334 c 0xec
EndSplineSet
EndChar

StartChar: percent
Encoding: 37 37 9
Width: 1533
Flags: W
HStem: -1 95<1014.16 1256.36> 666 97<1014.93 1256.72> 714 96<269.532 511.362> 1381 96<270.305 511.721> 1437 20G<1103.62 1237>
VStem: 98 109<873.114 1314.7> 574 116<873.922 1316.33> 836 116<157.818 599.859> 1319 116<158.625 601.487>
LayerCount: 2
Fore
SplineSet
690 1096 m 0xb780
 690 881 614 714 390 714 c 0
 164 714 98 881 98 1096 c 0
 98 1313 168 1477 390 1477 c 0
 617 1477 690 1316 690 1096 c 0xb780
418 0 m 1
 286 0 l 1
 1115 1457 l 1
 1237 1457 l 1x8f80
 418 0 l 1
207 1097 m 0
 207 931 235 810 391 810 c 0
 547 810 574 936 574 1097 c 0
 574 1264 546 1381 391 1381 c 0xb780
 235 1381 207 1258 207 1097 c 0
1435 381 m 0
 1435 166 1359 -1 1135 -1 c 0
 909 -1 836 166 836 381 c 0
 836 598 913 763 1135 763 c 0xc780
 1362 763 1435 601 1435 381 c 0
952 382 m 0
 952 216 980 94 1136 94 c 0
 1292 94 1319 221 1319 382 c 0
 1319 549 1291 666 1136 666 c 0
 980 666 952 543 952 382 c 0
EndSplineSet
EndChar

StartChar: ampersand
Encoding: 38 38 10
Width: 1420
Flags: W
HStem: -20 134<383.874 767.703> 1354 122<448.229 736.772>
VStem: 93 160<236.718 553.131> 220 143<993.137 1274.33> 799 149<1021.62 1291.95>
LayerCount: 2
Fore
SplineSet
253 401 m 0xe8
 253 224 365 114 571 114 c 0
 695 114 798 150 910 269 c 1
 477 695 l 1
 328 616 253 542 253 401 c 0xe8
799 1159 m 0
 799 1281 730 1354 596 1354 c 0
 463 1354 363 1272 363 1156 c 0xd8
 363 1062 400 980 515 846 c 1
 662 924 799 1002 799 1159 c 0
593 1476 m 0
 800 1476 948 1368 948 1164 c 0
 948 946 770 849 598 755 c 1
 993 369 l 1
 1063 464 1138 591 1226 760 c 1
 1235 760 l 1
 1332 692 l 1
 1276 579 1203 414 1092 272 c 1
 1292 77 l 1
 1203 -20 l 1
 1006 174 l 1
 891 62 742 -20 545 -20 c 0
 264 -20 93 153 93 390 c 0xe8
 93 594 203 689 395 784 c 1
 261 924 220 1034 220 1156 c 0
 220 1346 373 1476 593 1476 c 0
EndSplineSet
EndChar

StartChar: quotesingle
Encoding: 39 39 11
Width: 596
Flags: W
HStem: 980 580<226 317>
VStem: 226 165<1447.64 1560> 226 91<980 1092.36>
LayerCount: 2
Fore
SplineSet
226 980 m 1xa0
 226 1560 l 1
 391 1560 l 1xc0
 317 980 l 1
 226 980 l 1xa0
EndSplineSet
EndChar

StartChar: parenleft
Encoding: 40 40 12
Width: 766
Flags: W
VStem: 211 150<296.572 1063.43>
LayerCount: 2
Fore
SplineSet
361 680 m 0
 361 391 429 101 604 -196 c 1
 604 -230 l 1
 468 -230 l 1
 300 45 211 357 211 680 c 0
 211 1003 300 1315 468 1590 c 1
 604 1590 l 1
 604 1556 l 1
 429 1259 361 969 361 680 c 0
EndSplineSet
EndChar

StartChar: parenright
Encoding: 41 41 13
Width: 766
Flags: W
VStem: 410 150<296.572 1063.43>
LayerCount: 2
Fore
SplineSet
410 680 m 0
 410 969 342 1259 167 1556 c 1
 167 1590 l 1
 303 1590 l 1
 471 1315 560 1003 560 680 c 0
 560 357 471 45 303 -230 c 1
 167 -230 l 1
 167 -196 l 1
 342 101 410 391 410 680 c 0
EndSplineSet
EndChar

StartChar: asterisk
Encoding: 42 42 14
Width: 937
Flags: W
HStem: 1436 20G<392 552>
LayerCount: 2
Fore
SplineSet
467 937 m 1
 288 599 l 1
 158 681 l 1
 389 991 l 1
 48 1068 l 1
 90 1215 l 1
 426 1075 l 1
 392 1456 l 1
 552 1456 l 1
 516 1075 l 1
 854 1215 l 1
 896 1068 l 1
 551 991 l 1
 589 940 695 798 788 681 c 1
 731 645 716 635 659 599 c 1
 467 937 l 1
EndSplineSet
EndChar

StartChar: plus
Encoding: 43 43 15
Width: 1136
Flags: W
HStem: 611 166<118 476 648 1001>
VStem: 476 172<227 611 777 1156>
LayerCount: 2
Fore
SplineSet
476 227 m 1
 476 611 l 1
 118 611 l 1
 118 777 l 1
 477 777 l 1
 477 1156 l 1
 648 1156 l 1
 648 777 l 1
 1001 777 l 1
 1001 611 l 1
 648 611 l 1
 648 227 l 1
 476 227 l 1
EndSplineSet
EndChar

StartChar: comma
Encoding: 44 44 16
Width: 624
Flags: W
HStem: -300 535<235 291>
VStem: 235 173<96.6165 235>
LayerCount: 2
Fore
SplineSet
194 -300 m 1
 235 235 l 1
 408 235 l 1
 408 152 l 1
 291 -300 l 1
 194 -300 l 1
EndSplineSet
EndChar

StartChar: hyphen
Encoding: 45 45 17
Width: 852
Flags: W
HStem: 535 155<175 666>
VStem: 175 491<535 690>
LayerCount: 2
Fore
SplineSet
175 535 m 1
 175 690 l 1
 666 690 l 1
 666 535 l 1
 175 535 l 1
EndSplineSet
EndChar

StartChar: period
Encoding: 46 46 18
Width: 624
Flags: W
HStem: -11 234<229.07 399.837>
VStem: 214 201<2.53564 209.823>
LayerCount: 2
Fore
SplineSet
214 108 m 0
 214 181 242 223 316 223 c 0
 386 223 415 181 415 108 c 0
 415 32 386 -11 316 -11 c 0
 242 -11 214 32 214 108 c 0
EndSplineSet
EndChar

StartChar: slash
Encoding: 47 47 19
Width: 965
Flags: W
HStem: 0 21G<135 287.42> 1436 20G<735.635 892>
LayerCount: 2
Fore
SplineSet
135 0 m 5
 744 1456 l 1
 892 1456 l 1
 279 0 l 5
 135 0 l 5
EndSplineSet
EndChar

StartChar: zero
Encoding: 48 48 20
Width: 1136
Flags: W
HStem: -20 143<420.344 720.758> 1334 142<433.96 714.508>
VStem: 80 165<358.95 1055.16> 891 165<351.016 1078.86>
LayerCount: 2
Fore
SplineSet
573 -20 m 0
 230 -20 80 259 80 703 c 0
 80 1169 246 1476 573 1476 c 0
 900 1476 1056 1170 1056 703 c 0
 1056 259 916 -20 573 -20 c 0
573 123 m 0
 775 123 891 283 891 709 c 0
 891 1143 775 1334 573 1334 c 0
 371 1334 244 1114 245 708 c 1
 245 282 371 123 573 123 c 0
EndSplineSet
EndChar

StartChar: one
Encoding: 49 49 21
Width: 1136
Flags: W
HStem: 0 123<158 549 715 1064> 1166 135<171 311.15> 1436 20G<524 715>
VStem: 549 166<123 1302>
LayerCount: 2
Fore
SplineSet
1064 0 m 1
 158 0 l 1
 158 123 l 1
 549 123 l 1
 549 1302 l 1
 437 1240 245 1176 171 1166 c 1
 171 1301 l 1
 254 1319 486 1402 562 1456 c 1
 715 1456 l 1
 715 123 l 1
 1064 123 l 1
 1064 0 l 1
EndSplineSet
EndChar

StartChar: two
Encoding: 50 50 22
Width: 1136
Flags: W
HStem: 0 142<284 980> 1334 142<355.047 741.022>
VStem: 848 160<872.266 1230.03>
LayerCount: 2
Fore
SplineSet
848 1058 m 0
 848 1292 692 1334 563 1334 c 0
 415 1334 302 1280 238 1205 c 1
 219 1205 l 1
 138 1304 l 1
 212 1389 330 1476 575 1476 c 0
 759 1476 1008 1375 1008 1064 c 0
 1008 855 932 761 736 573 c 2
 284 142 l 1
 989 142 l 1
 980 0 l 1
 124 0 l 1
 98 151 l 1
 638 682 l 2
 784 825 848 890 848 1058 c 0
EndSplineSet
EndChar

StartChar: three
Encoding: 51 51 23
Width: 1164
Flags: W
HStem: -20 143<384.295 732.874> 694 143<411 683.875> 1334 142<372.897 716.325>
VStem: 808 160<942.096 1244.16> 847 162<229.442 565.883>
LayerCount: 2
Fore
SplineSet
565 -20 m 0xe8
 427 -20 250 26 145 212 c 1
 248 289 l 1
 261 289 l 1
 343 153 472 123 565 123 c 0
 726 123 847 206 847 387 c 0xe8
 847 623 706 694 441 694 c 2
 411 694 l 1
 386 837 l 1
 442 837 l 2
 599 837 808 866 808 1086 c 0
 808 1091 808 1096 808 1101 c 0
 808 1243 727 1334 564 1334 c 0
 559 1334 554 1334 549 1334 c 0
 421 1334 322 1285 243 1150 c 1
 223 1150 l 1
 122 1226 l 1
 223 1440 437 1476 562 1476 c 0
 823 1476 968 1324 968 1099 c 0
 968 1095 968 1092 968 1088 c 0xf0
 968 929 873 813 703 772 c 1
 901 735 1009 586 1009 380 c 0
 1009 172 868 -20 565 -20 c 0xe8
EndSplineSet
EndChar

StartChar: four
Encoding: 52 52 24
Width: 1136
Flags: W
HStem: 0 21G<740 898> 377 136<266 740 898 1055> 1436 20G<715.971 898>
VStem: 740 158<0 377 513 1246>
LayerCount: 2
Fore
SplineSet
740 0 m 1
 740 377 l 1
 166 377 l 1
 116 515 l 1
 729 1456 l 1
 898 1456 l 1
 898 513 l 1
 1067 513 l 1
 1055 377 l 1
 898 377 l 1
 898 0 l 1
 740 0 l 1
266 513 m 1
 740 513 l 1
 740 1246 l 1
 266 513 l 1
EndSplineSet
EndChar

StartChar: five
Encoding: 53 53 25
Width: 1136
Flags: W
HStem: -20 144<361.261 709.547> 809 126<430.054 723.972> 1321 135<405 917>
VStem: 855 160<274.286 663.423>
LayerCount: 2
Fore
SplineSet
542 124 m 0
 724 124 855 243 855 461 c 0
 855 683 730 809 595 809 c 0
 498 809 393 766 324 680 c 1
 203 702 l 1
 264 1456 l 1
 935 1456 l 1
 917 1321 l 1
 405 1321 l 1
 349 820 l 1
 414 900 487 931 626 935 c 1
 811 935 1015 793 1015 464 c 0
 1015 144 794 -20 540 -20 c 0
 318 -20 179 100 122 196 c 1
 221 290 l 1
 236 290 l 1
 317 181 391 124 542 124 c 0
EndSplineSet
EndChar

StartChar: six
Encoding: 54 54 26
Width: 1136
Flags: W
HStem: -20 134<431.864 761.782> 759 132<477.156 775.398> 1436 20G<667.275 855>
VStem: 128 159<260.759 611.068> 910 161<266.854 616.771>
LayerCount: 2
Fore
SplineSet
598 114 m 0
 801 114 910 270 910 444 c 0
 910 625 800 759 604 759 c 0
 474 759 287 681 287 438 c 0
 287 266 395 114 598 114 c 0
602 -20 m 0
 300 -20 128 204 128 448 c 0
 128 667 208 812 347 1001 c 2
 682 1456 l 1
 855 1456 l 1
 855 1435 l 1
 695 1216 534 999 377 778 c 1
 443 838 534 891 662 891 c 0
 894 891 1071 711 1071 445 c 0
 1071 188 889 -20 602 -20 c 0
EndSplineSet
EndChar

StartChar: seven
Encoding: 55 55 27
Width: 1136
Flags: W
HStem: 0 21G<261 435.234> 1319 137<103 803>
LayerCount: 2
Fore
SplineSet
261 0 m 1
 803 1319 l 1
 103 1319 l 1
 84 1456 l 1
 977 1456 l 1
 977 1336 l 1
 427 0 l 1
 261 0 l 1
EndSplineSet
EndChar

StartChar: eight
Encoding: 56 56 28
Width: 1137
Flags: W
HStem: -20 131<369.004 773.075> 1350 126<391.517 746.998>
VStem: 97 155<222.453 535.022> 128 160<961.738 1254.54> 848 160<959.451 1254.54> 883 157<213.84 531.445>
LayerCount: 2
Fore
SplineSet
569 -20 m 0xc4
 313 -20 97 104 97 364 c 0xe4
 97 569 211 695 403 763 c 1
 248 815 128 934 128 1115 c 0
 128 1348 314 1476 570 1476 c 0
 826 1476 1008 1348 1008 1115 c 0xd8
 1008 934 898 824 738 765 c 1
 921 704 1040 554 1040 364 c 0
 1040 104 827 -20 569 -20 c 0xc4
569 818 m 1
 756 860 848 960 848 1120 c 0
 848 1265 738 1350 569 1350 c 0
 401 1350 288 1265 288 1120 c 0xd8
 288 960 384 860 569 818 c 1
569 111 m 0
 782 111 883 198 883 380 c 0
 883 552 750 658 569 698 c 1
 389 658 252 558 252 379 c 0xe4
 252 204 362 111 569 111 c 0
EndSplineSet
EndChar

StartChar: nine
Encoding: 57 57 29
Width: 1136
Flags: W
HStem: 0 21G<296 491.696> 565 132<415.92 733.635> 1344 132<432.576 768.141>
VStem: 117 162<840.288 1188.67> 915 158<844.617 1192.62>
LayerCount: 2
Fore
SplineSet
584 697 m 0
 720 697 915 773 915 1019 c 0
 915 1191 803 1344 600 1344 c 0
 397 1344 279 1192 279 1018 c 0
 279 838 382 697 584 697 c 0
476 0 m 1
 296 0 l 1
 296 21 l 1
 461 228 631 430 790 642 c 1
 717 591 627 565 543 565 c 0
 303 565 117 749 117 1016 c 0
 117 1274 312 1476 599 1476 c 0
 901 1476 1073 1252 1073 1008 c 0
 1073 790 979 640 837 460 c 2
 476 0 l 1
EndSplineSet
EndChar

StartChar: colon
Encoding: 58 58 30
Width: 653
Flags: W
HStem: -10 245<227.12 414.693> 838 245<227.12 414.693>
VStem: 201 238<14.0088 210.095 862.009 1058.09>
LayerCount: 2
Fore
SplineSet
322 -10 m 0
 240 -10 201 50 201 112 c 0
 201 172 239 235 322 235 c 0
 404 235 439 172 439 112 c 0
 439 50 404 -10 322 -10 c 0
322 838 m 0
 240 838 201 898 201 960 c 0
 201 1020 239 1083 322 1083 c 0
 404 1083 439 1020 439 960 c 0
 439 898 404 838 322 838 c 0
EndSplineSet
EndChar

StartChar: semicolon
Encoding: 59 59 31
Width: 710
Flags: W
HStem: 837 245<277.12 464.693>
VStem: 251 238<861.009 1057.09> 292 173<-35.7031 235>
LayerCount: 2
Fore
SplineSet
211 -260 m 1xa0
 254 -95 281 70 292 235 c 1
 465 235 l 1
 465 192 l 2
 465 37 349 -245 308 -300 c 1
 211 -260 l 1xa0
372 837 m 0
 290 837 251 897 251 959 c 0
 251 1019 289 1082 372 1082 c 0
 454 1082 489 1019 489 959 c 0xc0
 489 897 454 837 372 837 c 0
EndSplineSet
EndChar

StartChar: less
Encoding: 60 60 32
Width: 1107
Flags: W
LayerCount: 2
Fore
SplineSet
1010 135 m 1
 80 591 l 1
 80 680 l 1
 1010 1169 l 1
 1010 1026 l 1
 265 640 l 1
 1010 280 l 1
 1010 135 l 1
EndSplineSet
EndChar

StartChar: equal
Encoding: 61 61 33
Width: 1050
Flags: W
HStem: 409 147<131 928> 792 147<131 928>
LayerCount: 2
Fore
SplineSet
131 792 m 1
 131 939 l 1
 928 939 l 1
 928 792 l 1
 131 792 l 1
131 409 m 1
 131 556 l 1
 928 556 l 1
 928 409 l 1
 131 409 l 1
EndSplineSet
EndChar

StartChar: greater
Encoding: 62 62 34
Width: 1107
Flags: W
LayerCount: 2
Fore
SplineSet
93 141 m 1
 93 286 l 1
 830 640 l 1
 95 1032 l 1
 95 1175 l 1
 1023 679 l 1
 1023 589 l 1
 93 141 l 1
EndSplineSet
EndChar

StartChar: question
Encoding: 63 63 35
Width: 908
Flags: W
HStem: -13 227<277.258 464.149> 1343 134<220.704 525.602>
VStem: 256 229<7.77734 193.275> 590 159<957.817 1276.43>
LayerCount: 2
Fore
SplineSet
392 1343 m 0
 286 1343 191 1285 149 1256 c 1
 116 1382 l 1
 189 1437 286 1477 410 1477 c 0
 589 1477 749 1380 749 1132 c 0
 749 836 514 788 415 424 c 1
 332 424 l 1
 341 731 590 908 590 1127 c 0
 590 1273 517 1343 392 1343 c 0
371 -13 m 0
 292 -13 256 43 256 101 c 0
 256 158 292 214 371 214 c 0
 450 214 485 158 485 101 c 0
 485 41 450 -13 371 -13 c 0
EndSplineSet
EndChar

StartChar: at
Encoding: 64 64 36
Width: 1931
Flags: W
HStem: -202 123<685.948 1249.22> 215 121<770.535 1015.36 1297.96 1501.82> 966 105<881.167 1164.85> 1357 119<740.953 1268.32>
VStem: 147 144<325.874 877.936> 580 138<392.834 782.079> 1637 127<504.599 999.791>
LayerCount: 2
Fore
SplineSet
940 -202 m 0
 471 -202 147 105 147 607 c 0
 147 1107 510 1476 1007 1476 c 0
 1436 1476 1764 1193 1764 744 c 0
 1764 394 1566 215 1395 215 c 0
 1265 215 1188 298 1158 429 c 1
 1109 321 1017 211 876 211 c 0
 688 211 580 366 580 565 c 0
 580 815 730 1071 1014 1071 c 0
 1110 1071 1241 1042 1327 998 c 1
 1299 793 1262 606 1262 480 c 0
 1262 397 1320 336 1395 336 c 0
 1512 336 1637 477 1637 752 c 0
 1637 1092 1428 1357 1000 1357 c 0
 565 1357 291 1028 291 603 c 0
 291 198 523 -79 943 -79 c 0
 1107 -79 1275 -48 1410 38 c 1
 1452 -65 l 1
 1324 -153 1131 -202 940 -202 c 0
718 575 m 0
 718 427 767 326 893 326 c 0
 1045 326 1093 487 1125 688 c 1
 1168 946 l 1
 1123 956 1059 966 1030 966 c 0
 846 966 718 800 718 575 c 0
EndSplineSet
EndChar

StartChar: A
Encoding: 65 65 37
Width: 1391
Flags: W
HStem: 0 21G<46 226.446 1143.51 1325> 462 125<431 938> 1436 20G<589.431 775.651>
LayerCount: 2
Fore
SplineSet
938 587 m 1
 683 1279 l 1
 431 587 l 1
 938 587 l 1
1151 0 m 1
 978 462 l 1
 391 462 l 1
 219 0 l 1
 46 0 l 1
 597 1456 l 1
 768 1456 l 1
 1325 0 l 1
 1151 0 l 1
EndSplineSet
EndChar

StartChar: B
Encoding: 66 66 38
Width: 1334
Flags: W
HStem: -10 134<357.929 881.7> 723 126<355 885.153> 1336 128<359.642 869.425>
VStem: 179 176<129.405 723 849 1326.26> 993 157<944.011 1237.54> 1029 174<240.327 597.896>
LayerCount: 2
Fore
SplineSet
626 723 m 2xf4
 355 723 l 1
 355 132 l 1
 431 127 498 124 558 124 c 0
 1001 124 1029 263 1029 424 c 0
 1029 635 908 723 626 723 c 2xf4
993 1089 m 0xf8
 993 1250 901 1336 602 1336 c 0
 532 1336 450 1332 355 1322 c 1
 355 849 l 1
 637 849 l 2
 827 849 993 886 993 1089 c 0xf8
1203 432 m 0xf4
 1203 115 1003 -10 527 -10 c 0
 424 -10 308 -4 179 7 c 1
 179 1432 l 1
 344 1454 481 1464 595 1464 c 0
 1145 1464 1150 1237 1150 1099 c 0xf8
 1150 969 1093 852 907 791 c 1
 1119 738 1203 609 1203 432 c 0xf4
EndSplineSet
EndChar

StartChar: C
Encoding: 67 67 39
Width: 1391
Flags: W
HStem: -20 143<577.881 967.882> 1335 143<577.881 967.882>
VStem: 154 177<419.436 1038.56> 1126 141<275.669 339.12 1118.88 1182.33>
LayerCount: 2
Fore
SplineSet
1267 334 m 1
 1212 72 984 -20 764 -20 c 0
 383 -20 154 262 154 729 c 0
 154 1196 383 1478 764 1478 c 0
 984 1478 1212 1386 1267 1124 c 1
 1141 1079 l 1
 1126 1079 l 1
 1090 1242 956 1335 774 1335 c 0
 489 1335 331 1130 331 729 c 0
 331 328 489 123 774 123 c 0
 956 123 1090 216 1126 379 c 1
 1141 379 l 1
 1267 334 l 1
EndSplineSet
EndChar

StartChar: D
Encoding: 68 68 40
Width: 1476
Flags: W
HStem: -10 122<364.451 819.748> 1336 126<364.919 862.165>
VStem: 186 176<118.137 1326.63> 1142 176<435.39 1051.81>
LayerCount: 2
Fore
SplineSet
1142 739 m 0
 1142 1108 1037 1336 579 1336 c 0
 514 1336 442 1331 362 1322 c 1
 362 122 l 1
 424 116 482 112 535 112 c 0
 1025 112 1142 377 1142 739 c 0
186 11 m 1
 186 1432 l 1
 329 1452 455 1462 566 1462 c 0
 1182 1462 1318 1165 1318 744 c 0
 1318 297 1109 -10 490 -10 c 0
 398 -10 297 -3 186 11 c 1
EndSplineSet
EndChar

StartChar: E
Encoding: 69 69 41
Width: 1278
Flags: W
HStem: 0 137<355 1133> 686 136<355 1062> 1321 135<355 1124>
VStem: 179 176<137 686 822 1321>
LayerCount: 2
Fore
SplineSet
1145 137 m 1
 1133 0 l 1
 179 0 l 1
 179 1456 l 1
 1130 1456 l 1
 1124 1321 l 1
 355 1321 l 1
 355 822 l 1
 1062 822 l 1
 1062 686 l 1
 355 686 l 1
 355 137 l 1
 1145 137 l 1
EndSplineSet
EndChar

StartChar: F
Encoding: 70 70 42
Width: 1192
Flags: W
HStem: 0 21G<192 368> 666 131<368 1050> 1318 138<368 1145>
VStem: 192 176<0 666 797 1318>
LayerCount: 2
Fore
SplineSet
1050 666 m 1
 368 666 l 1
 368 0 l 1
 192 0 l 1
 192 1456 l 1
 1155 1456 l 1
 1145 1318 l 1
 368 1318 l 1
 368 797 l 1
 1050 797 l 1
 1050 666 l 1
EndSplineSet
EndChar

StartChar: G
Encoding: 71 71 43
Width: 1448
Flags: W
HStem: -20 143<599.383 1112.19> 646 118<828 1012.54> 1334 142<624.006 1055.97>
VStem: 147 177<433.738 1005.12> 1116 163<150.084 624>
LayerCount: 2
Fore
SplineSet
1279 72 m 1
 1132 14 1007 -20 811 -20 c 0
 362 -20 147 303 147 737 c 0
 147 1176 401 1476 840 1476 c 0
 1051 1476 1196 1400 1283 1298 c 1
 1203 1194 l 1
 1187 1194 l 1
 1123 1260 1026 1334 843 1334 c 0
 501 1334 324 1091 324 738 c 0
 324 369 457 123 842 123 c 0
 973 123 1055 143 1116 163 c 1
 1116 624 l 1
 819 646 l 1
 828 764 l 1
 1279 764 l 1
 1279 72 l 1
EndSplineSet
EndChar

StartChar: H
Encoding: 72 72 44
Width: 1476
Flags: W
HStem: 0 21G<186 362 1111 1287> 678 142<362 1111> 1436 20G<186 362 1111 1287>
VStem: 186 176<0 678 820 1456> 1111 176<0 678 820 1456>
LayerCount: 2
Fore
SplineSet
1111 0 m 1
 1111 678 l 1
 362 678 l 1
 362 0 l 1
 186 0 l 1
 186 1456 l 1
 362 1456 l 1
 362 820 l 1
 1111 820 l 1
 1111 1456 l 1
 1287 1456 l 1
 1287 0 l 1
 1111 0 l 1
EndSplineSet
EndChar

StartChar: I
Encoding: 73 73 45
Width: 965
Flags: W
HStem: 0 110<198 390 566 756> 1347 109<198 390 566 756>
VStem: 390 176<110 1347>
LayerCount: 2
Fore
SplineSet
756 0 m 1
 198 0 l 1
 198 110 l 1
 390 110 l 1
 390 1347 l 1
 198 1347 l 1
 198 1456 l 1
 756 1456 l 1
 756 1347 l 1
 566 1347 l 1
 566 110 l 1
 756 110 l 1
 756 0 l 1
EndSplineSet
EndChar

StartChar: J
Encoding: 74 74 46
Width: 795
Flags: W
HStem: 1436 20G<381 557>
VStem: 381 176<-179.812 1456>
LayerCount: 2
Fore
SplineSet
381 5 m 2
 381 1456 l 1
 557 1456 l 1
 557 5 l 2
 557 -251 503 -293 290 -367 c 2
 209 -395 l 1
 156 -264 l 1
 272 -216 l 2
 375 -174 381 -152 381 5 c 2
EndSplineSet
EndChar

StartChar: K
Encoding: 75 75 47
Width: 1334
Flags: W
HStem: 0 21G<186 362 1096.69 1310> 1436 20G<186 362 1061.69 1274>
VStem: 186 176<0 582 747 1456>
LayerCount: 2
Fore
SplineSet
1112 0 m 1
 540 747 l 1
 362 582 l 1
 362 0 l 1
 186 0 l 1
 186 1456 l 1
 362 1456 l 1
 362 747 l 1
 1082 1456 l 1
 1274 1456 l 1
 1274 1434 l 1
 669 842 l 1
 1310 20 l 1
 1310 0 l 1
 1112 0 l 1
EndSplineSet
EndChar

StartChar: L
Encoding: 76 76 48
Width: 1079
Flags: W
HStem: 0 137<368 1074> 1436 20G<192 368>
VStem: 192 176<137 1456>
LayerCount: 2
Fore
SplineSet
1074 0 m 1
 192 0 l 1
 192 1456 l 1
 368 1456 l 1
 368 137 l 1
 1078 137 l 1
 1074 0 l 1
EndSplineSet
EndChar

StartChar: M
Encoding: 77 77 49
Width: 1789
Flags: W
HStem: 0 21G<179 345 1449 1613> 1436 20G<202.512 427.787 1370.14 1589.49>
VStem: 179 166<0 1059.78> 203 151<868.224 1235> 1440 149<868.224 1222> 1449 164<0 1059.78>
LayerCount: 2
Fore
SplineSet
345 471 m 1xe0
 345 0 l 1
 179 0 l 1
 179 472 l 1xe0
 203 1456 l 1
 419 1456 l 1
 897 368 l 1
 1379 1456 l 1
 1589 1456 l 1xd8
 1613 472 l 1
 1613 0 l 1
 1449 0 l 1
 1449 474 l 1xc4
 1440 928 l 1
 1440 1222 l 1
 971 167 l 1
 820 167 l 1
 354 1235 l 1
 354 924 l 1xd8
 345 471 l 1xe0
EndSplineSet
EndChar

StartChar: N
Encoding: 78 78 50
Width: 1505
Flags: W
HStem: 0 21G<205 364 1108.37 1306> 1436 20G<205 395.561 1148 1306>
VStem: 205 159<0 1175.85> 205 143<809.152 1224> 1148 158<222 1456>
LayerCount: 2
Fore
SplineSet
364 761 m 1xe8
 364 0 l 1
 205 0 l 1xe8
 205 1456 l 1
 383 1456 l 1
 1158 222 l 1
 1148 644 l 1
 1148 1456 l 1
 1306 1456 l 1
 1306 0 l 1
 1121 0 l 1
 348 1224 l 1xd8
 364 761 l 1xe8
EndSplineSet
EndChar

StartChar: O
Encoding: 79 79 51
Width: 1590
Flags: W
HStem: -20 142<573.264 1011.08> 1334 142<586.729 1008.19>
VStem: 147 177<412.941 1030.55> 1267 176<413.574 1035.34>
LayerCount: 2
Fore
SplineSet
798 -20 m 0
 351 -20 147 269 147 721 c 0
 147 1184 361 1476 799 1476 c 0
 1228 1476 1443 1181 1443 718 c 0
 1443 275 1240 -20 798 -20 c 0
796 122 m 0
 1146 122 1267 365 1267 720 c 0
 1267 1089 1139 1334 798 1334 c 0
 458 1334 324 1091 324 720 c 0
 324 365 446 122 796 122 c 0
EndSplineSet
EndChar

StartChar: P
Encoding: 80 80 52
Width: 1278
Flags: W
HStem: 0 21G<192 368> 640 127<368 882.963> 1336 127<372.829 897.654>
VStem: 192 176<0 650 774.308 1324.92> 1021 160<886.209 1231.58>
LayerCount: 2
Fore
SplineSet
1181 1068 m 0
 1181 824 1075 640 587 640 c 0
 521 640 448 643 368 650 c 1
 368 0 l 1
 192 0 l 1
 192 1432 l 1
 356 1452 495 1463 613 1463 c 0
 1038 1463 1181 1330 1181 1068 c 0
1021 1066 m 0
 1021 1238 950 1336 626 1336 c 0
 553 1336 468 1331 368 1321 c 1
 368 778 l 1
 454 770 530 767 595 767 c 0
 956 767 1021 880 1021 1066 c 0
EndSplineSet
EndChar

StartChar: Q
Encoding: 81 81 53
Width: 1590
Flags: W
HStem: -431 21G<1143.18 1185.61> -20 142<573.264 886.321> 1334 142<586.729 1008.19>
VStem: 147 177<412.941 1030.55> 1267 176<411.37 1035.34>
LayerCount: 2
Fore
SplineSet
1157 -431 m 1
 871 -17 l 1
 847 -19 823 -20 798 -20 c 0
 351 -20 147 269 147 721 c 0
 147 1184 361 1476 799 1476 c 0
 1228 1476 1443 1181 1443 718 c 0
 1443 358 1309 95 1020 10 c 1
 1270 -352 l 1
 1157 -431 l 1
796 122 m 0
 1146 122 1267 365 1267 720 c 0
 1267 1089 1139 1334 798 1334 c 0
 458 1334 324 1091 324 720 c 0
 324 365 446 122 796 122 c 0
EndSplineSet
EndChar

StartChar: R
Encoding: 82 82 54
Width: 1306
Flags: W
HStem: 0 21G<186 362 1041.87 1238> 664 127<362 714> 1336 126<366.561 929.566>
VStem: 186 176<0 670 799 1325.56> 1042 162<905.017 1237.48>
LayerCount: 2
Fore
SplineSet
637 1462 m 0
 1057 1462 1204 1346 1204 1072 c 0
 1204 858 1092 737 889 687 c 1
 1238 20 l 1
 1238 0 l 1
 1052 0 l 1
 714 667 l 1
 666 665 611 664 556 664 c 0
 490 664 423 666 362 670 c 1
 362 0 l 1
 186 0 l 1
 186 1432 l 1
 363 1452 512 1462 637 1462 c 0
635 1336 m 0
 559 1336 468 1331 362 1322 c 1
 362 799 l 1
 447 794 522 791 589 791 c 0
 938 791 1042 868 1042 1072 c 0
 1042 1243 979 1336 635 1336 c 0
EndSplineSet
EndChar

StartChar: S
Encoding: 83 83 55
Width: 1221
Flags: W
HStem: -20 143<366.784 811.102> 1334 142<397.877 836.127>
VStem: 120 177<981.273 1239.58> 932 165<236.873 523.181>
LayerCount: 2
Fore
SplineSet
1097 381 m 0
 1097 73 836 -20 598 -20 c 0
 372 -20 198 66 116 164 c 1
 210 261 l 1
 222 261 l 1
 320 166 462 123 598 123 c 0
 790 123 932 192 932 385 c 0
 932 548 841 575 539 700 c 0
 274 810 120 856 120 1086 c 0
 120 1396 362 1476 621 1476 c 0
 805 1476 972 1414 1078 1297 c 1
 989 1195 l 1
 975 1195 l 1
 896 1281 765 1334 612 1334 c 0
 439 1334 297 1282 297 1107 c 0
 297 971 364 945 604 849 c 0
 914 724 1097 676 1097 381 c 0
EndSplineSet
EndChar

StartChar: T
Encoding: 84 84 56
Width: 1136
Flags: W
HStem: 0 21G<479 655> 1319 137<2 479 655 1134>
VStem: 479 176<0 1319>
LayerCount: 2
Fore
SplineSet
1134 1319 m 1
 655 1319 l 1
 655 0 l 1
 479 0 l 1
 479 1319 l 1
 2 1319 l 1
 2 1456 l 1
 1134 1456 l 1
 1134 1319 l 1
EndSplineSet
EndChar

StartChar: U
Encoding: 85 85 57
Width: 1448
Flags: W
HStem: -20 143<513.204 918.992> 1437 20G<173 349 1093 1269>
VStem: 173 176<302.253 1457> 1093 176<303.643 1457>
LayerCount: 2
Fore
SplineSet
721 -20 m 0
 333 -20 173 211 173 543 c 2
 173 1457 l 1
 349 1457 l 1
 349 546 l 2
 349 271 449 123 721 123 c 0
 984 123 1093 271 1093 546 c 2
 1093 1457 l 1
 1269 1457 l 1
 1269 540 l 2
 1269 217 1105 -20 721 -20 c 0
EndSplineSet
EndChar

StartChar: V
Encoding: 86 86 58
Width: 1221
Flags: W
HStem: 0 21G<518.624 687.541> 1436 20G<-11 233.5 974 1229>
LayerCount: 2
Fore
SplineSet
680 0 m 1
 526 0 l 1
 -11 1456 l 1
 159 1456 l 1
 308 1043 458 631 604 216 c 1
 751 630 900 1043 1048 1456 c 1
 1229 1456 l 1
 680 0 l 1
EndSplineSet
EndChar

StartChar: W
Encoding: 87 87 59
Width: 1675
Flags: W
HStem: 0 21G<313.316 490.79 1164.46 1345.64> 1436 20G<-23 136.584 1504.85 1679>
VStem: 1509 170<1394.24 1456>
LayerCount: 2
Fore
SplineSet
1170 0 m 1
 835 1209 l 1
 485 0 l 1
 318 0 l 1
 -23 1456 l 1
 132 1456 l 1
 410 243 l 1
 748 1425 l 1
 918 1425 l 1
 1254 227 l 1
 1509 1456 l 1
 1679 1456 l 1
 1341 0 l 1
 1170 0 l 1
EndSplineSet
EndChar

StartChar: X
Encoding: 88 88 60
Width: 1278
Flags: W
HStem: 0 21G<52 244.311 1004.72 1217> 1436 20G<53 261.311 1009.03 1210>
LayerCount: 2
Fore
SplineSet
1018 0 m 1
 625 592 l 1
 231 0 l 1
 52 0 l 1
 531 735 l 1
 53 1456 l 1
 248 1456 l 1
 640 867 l 1
 1022 1456 l 1
 1210 1456 l 1
 732 729 l 1
 1217 0 l 1
 1018 0 l 1
EndSplineSet
EndChar

StartChar: Y
Encoding: 89 89 61
Width: 1136
Flags: W
HStem: 0 21G<483 659> 1436 20G<-30 143.03 983.372 1168>
VStem: 483 176<0 508>
LayerCount: 2
Fore
SplineSet
659 0 m 1
 483 0 l 1
 483 513 l 1
 -30 1456 l 1
 132 1456 l 1
 571 660 l 1
 994 1456 l 1
 1168 1456 l 1
 659 508 l 1
 659 0 l 1
EndSplineSet
EndChar

StartChar: Z
Encoding: 90 90 62
Width: 1221
Flags: W
HStem: 0 137<297 1125> 1321 135<130 928>
LayerCount: 2
Fore
SplineSet
1125 0 m 1
 97 0 l 1
 97 127 l 1
 928 1321 l 1
 130 1321 l 1
 130 1456 l 1
 1119 1456 l 1
 1126 1332 l 1
 297 137 l 1
 1133 137 l 1
 1125 0 l 1
EndSplineSet
EndChar

StartChar: bracketleft
Encoding: 91 91 63
Width: 823
Flags: W
HStem: -255 120<393 681> 1355 121<393 681>
VStem: 217 176<-135 1355>
LayerCount: 2
Fore
SplineSet
681 -255 m 1
 217 -255 l 1
 217 1476 l 1
 681 1476 l 1
 681 1355 l 1
 393 1355 l 1
 393 -135 l 1
 681 -135 l 1
 681 -255 l 1
EndSplineSet
EndChar

StartChar: backslash
Encoding: 92 92 64
Width: 937
Flags: W
HStem: -20 21G<633.727 771> 1456 20G<97 235.259>
VStem: 97 674
LayerCount: 2
Fore
SplineSet
771 -20 m 1
 641 -20 l 1
 97 1476 l 1
 228 1476 l 1
 771 -20 l 1
EndSplineSet
EndChar

StartChar: bracketright
Encoding: 93 93 65
Width: 965
Flags: W
HStem: -255 120<287 575> 1355 121<287 575>
VStem: 575 176<-135 1355>
LayerCount: 2
Fore
SplineSet
751 -255 m 1
 287 -255 l 1
 287 -135 l 1
 575 -135 l 1
 575 1355 l 1
 287 1355 l 1
 287 1476 l 1
 751 1476 l 1
 751 -255 l 1
EndSplineSet
EndChar

StartChar: asciicircum
Encoding: 94 94 66
Width: 937
Flags: W
HStem: 1074 382
VStem: 194 535
LayerCount: 2
Fore
SplineSet
194 1074 m 1
 374 1456 l 1
 561 1456 l 1
 729 1074 l 1
 617 1074 l 1
 463 1355 l 1
 305 1074 l 1
 194 1074 l 1
EndSplineSet
EndChar

StartChar: underscore
Encoding: 95 95 67
Width: 1136
Flags: W
HStem: -260 122<120 1016>
LayerCount: 2
Fore
SplineSet
120 -260 m 1
 120 -138 l 1
 1016 -138 l 1
 1016 -260 l 1
 120 -260 l 1
EndSplineSet
EndChar

StartChar: grave
Encoding: 96 96 68
Width: 795
Flags: W
HStem: 1044 412
VStem: 252 354
LayerCount: 2
Fore
SplineSet
606 1044 m 1
 509 1044 l 1
 252 1422 l 1
 252 1456 l 1
 423 1456 l 1
 606 1044 l 1
EndSplineSet
EndChar

StartChar: a
Encoding: 97 97 69
Width: 1107
Flags: W
HStem: -21 123<331.902 665.748> 0 21G<813.507 956> 494 113<349.256 788.187> 980 126<357.799 707.633>
VStem: 112 158<160.907 421.674> 792 164<204.365 483.713 594 895.484> 815 141<0 134>
LayerCount: 2
Fore
SplineSet
270 292 m 0xbc
 270 151 363 102 483 102 c 0
 613 102 721 161 792 252 c 1
 792 479 l 1
 714 489 612 494 567 494 c 0
 337 494 270 415 270 292 c 0xbc
463 -21 m 0
 253 -21 112 82 112 293 c 0
 112 482 232 607 551 607 c 0
 602 607 708 603 792 594 c 1
 792 722 l 2
 792 902 712 980 549 980 c 0
 415 980 327 944 233 821 c 1
 223 821 l 1
 141 911 l 1
 230 1040 356 1106 548 1106 c 0
 789 1106 956 1001 956 712 c 2xbc
 956 0 l 1
 815 0 l 1x7a
 805 134 l 1
 719 28 609 -21 463 -21 c 0
EndSplineSet
EndChar

StartChar: b
Encoding: 98 98 70
Width: 1192
Flags: W
HStem: -20 126<423.502 765.968> 0 21G<156 288.947> 980 126<464.348 776.504> 1540 20G<156 320>
VStem: 156 164<190.381 825.701 877 1548> 156 131<0 113> 908 169<276.418 821.209>
LayerCount: 2
Fore
SplineSet
314 877 m 1x7a
 390 1069 531 1106 650 1106 c 0
 944 1106 1077 872 1077 542 c 0
 1077 204 909 -20 614 -20 c 0xba
 473 -20 365 35 298 113 c 1
 287 0 l 1
 156 0 l 1x76
 156 1548 l 1
 320 1560 l 1
 320 1105 l 1
 314 877 l 1x7a
610 106 m 0
 820 106 908 277 908 541 c 0
 908 791 844 980 630 980 c 0
 403 980 313 808 313 558 c 2
 313 246 l 1
 382 150 490 106 610 106 c 0
EndSplineSet
EndChar

StartChar: c
Encoding: 99 99 71
Width: 1079
Flags: W
HStem: -20 126<447.465 774.842> 980 126<447.465 769.032>
VStem: 118 170<290.932 795.068>
LayerCount: 2
Fore
SplineSet
118 543 m 0
 118 888 307 1106 603 1106 c 0
 844 1106 946 982 989 879 c 1
 887 820 l 1
 873 820 l 1
 821 911 751 980 610 980 c 0
 394 980 288 815 288 543 c 0
 288 271 394 106 610 106 c 0
 751 106 820 172 872 263 c 1
 886 263 l 1
 989 207 l 1
 947 104 844 -20 603 -20 c 0
 307 -20 118 198 118 543 c 0
EndSplineSet
EndChar

StartChar: d
Encoding: 100 100 72
Width: 1192
Flags: W
HStem: -20 126<434.867 772.144> 0 21G<898.165 1041> 980 123<432.672 771.452> 1539 20G<870 1041>
VStem: 112 170<288.892 801.399> 877 164<178.629 888.568 986 1547> 900 141<0 109>
LayerCount: 2
Fore
SplineSet
593 106 m 0xbc
 710 106 810 142 877 222 c 1
 877 840 l 1
 808 936 711 980 591 980 c 0
 381 980 282 812 282 548 c 0
 282 275 379 106 593 106 c 0xbc
890 109 m 1
 807 19 683 -20 582 -20 c 0xba
 276 -20 112 209 112 545 c 0
 112 888 290 1103 586 1103 c 0
 715 1103 810 1058 875 986 c 1
 870 1154 l 1
 870 1547 l 1
 1041 1559 l 1
 1041 0 l 1
 900 0 l 1x7a
 890 109 l 1
EndSplineSet
EndChar

StartChar: e
Encoding: 101 101 73
Width: 1109
Flags: W
HStem: -20 126<458.506 838.719> 516 111<277 871> 980 126<442.867 753.173>
VStem: 105 168<316.981 516 627 779.047> 871 141<627 848.813>
LayerCount: 2
Fore
SplineSet
871 627 m 1
 868 851 784 980 603 980 c 0
 423 980 297 843 277 627 c 1
 871 627 l 1
1012 627 m 0
 1012 599 1005 522 1004 516 c 1
 273 516 l 1
 290 227 439 106 638 106 c 0
 763 106 840 146 930 197 c 1
 942 197 l 1
 981 84 l 1
 891 24 766 -20 617 -20 c 0
 330 -20 105 190 105 538 c 0
 105 899 329 1106 597 1106 c 0
 853 1106 1012 924 1012 627 c 0
EndSplineSet
EndChar

StartChar: f
Encoding: 102 102 74
Width: 743
Flags: W
HStem: 0 21G<264 428> 980 102<94.656 264 428 703> 980 86<75 264> 1393 124<463.468 709.502>
VStem: 264 164<0 980 1082 1351.9>
LayerCount: 2
Fore
SplineSet
703 980 m 1xd8
 428 980 l 1
 428 0 l 1
 264 0 l 1
 264 980 l 1xd8
 70 980 l 1
 75 1066 l 1xb8
 264 1079 l 1
 264 1162 l 2
 264 1460 370 1517 565 1517 c 0
 635 1517 719 1501 719 1501 c 1
 707 1386 l 1
 707 1386 640 1393 605 1393 c 0
 460 1393 428 1351 428 1162 c 2
 428 1082 l 1
 703 1082 l 1
 703 980 l 1xd8
EndSplineSet
EndChar

StartChar: g
Encoding: 103 103 75
Width: 1192
Flags: W
HStem: -484 133<297.809 754.782> -427 133<244 401.77> -20 126<435.111 783.524> 980 126<432.358 769.868> 1062 20G<895.559 1033>
VStem: 112 169<287.245 799.17> 876 157<-216.777 90 183.6 888.568> 897 136<971 1082>
LayerCount: 2
Fore
SplineSet
590 980 m 0x36
 380 980 281 809 281 545 c 0
 281 272 378 106 592 106 c 0
 711 106 817 147 876 228 c 1
 876 840 l 1
 807 936 710 980 590 980 c 0x36
877 90 m 1
 791 1 672 -20 584 -20 c 0
 277 -20 112 207 112 544 c 0
 112 882 291 1106 586 1106 c 0xb6
 724 1106 825 1049 889 971 c 1
 897 1082 l 1
 1033 1082 l 1x2d
 1033 58 l 2
 1033 -305 910 -484 552 -484 c 0xae
 431 -484 311 -458 230 -427 c 1
 244 -294 l 1
 266 -294 l 1x66
 348 -330 462 -351 556 -351 c 0xa6
 764 -351 877 -268 877 10 c 2
 877 90 l 1
EndSplineSet
EndChar

StartChar: h
Encoding: 104 104 76
Width: 1192
Flags: W
HStem: 0 21G<163 326 878 1044> 980 126<481.647 795.399> 1540 20G<163 327>
VStem: 163 163<0 813.921 881 1547> 878 166<0 884.871>
LayerCount: 2
Fore
SplineSet
326 593 m 2
 326 0 l 1
 163 0 l 1
 163 1547 l 1
 327 1560 l 1
 327 1146 l 1
 321 881 l 1
 398 1057 536 1106 683 1106 c 0
 915 1106 1044 948 1044 670 c 2
 1044 0 l 1
 878 0 l 1
 878 664 l 2
 878 873 818 980 656 980 c 0
 402 980 326 782 326 593 c 2
EndSplineSet
EndChar

StartChar: i
Encoding: 105 105 77
Width: 586
Flags: W
HStem: 0 21G<216 380> 1062 20G<216 380> 1304 211<214.918 381.871>
VStem: 216 164<0 1082 1309.49 1509.65>
LayerCount: 2
Fore
SplineSet
203 1411 m 0
 203 1477 229 1515 299 1515 c 0
 367 1515 394 1477 394 1411 c 0
 394 1343 367 1304 299 1304 c 0
 229 1304 203 1343 203 1411 c 0
216 0 m 1
 216 1082 l 1
 380 1082 l 1
 380 0 l 1
 216 0 l 1
EndSplineSet
EndChar

StartChar: j
Encoding: 106 106 78
Width: 624
Flags: W
HStem: 1062 20G<276 440> 1304 211<274.918 441.871>
VStem: 276 164<-174.533 1082 1309.49 1509.65>
LayerCount: 2
Fore
SplineSet
263 1411 m 0
 263 1477 289 1515 359 1515 c 0
 427 1515 454 1477 454 1411 c 0
 454 1343 427 1304 359 1304 c 0
 289 1304 263 1343 263 1411 c 0
163 -362 m 2
 89 -386 l 1
 41 -265 l 1
 154 -219 l 2
 251 -179 276 -162 276 -5 c 2
 276 1082 l 1
 440 1082 l 1
 440 -6 l 2
 440 -261 367 -296 163 -362 c 2
EndSplineSet
EndChar

StartChar: k
Encoding: 107 107 79
Width: 1079
Flags: W
HStem: 0 21G<156 320 852.432 1048> 1062 20G<806.248 1014> 1540 20G<156 320>
VStem: 156 164<0 397 537 1547>
LayerCount: 2
Fore
SplineSet
869 0 m 1
 449 507 l 1
 320 397 l 1
 320 0 l 1
 156 0 l 1
 156 1547 l 1
 320 1560 l 1
 320 757 l 1
 314 537 l 1
 825 1082 l 1
 1014 1082 l 1
 1014 1058 l 1
 564 589 l 1
 1048 24 l 1
 1048 0 l 1
 869 0 l 1
EndSplineSet
EndChar

StartChar: l
Encoding: 108 108 80
Width: 635
Flags: W
HStem: -8 122<484 523> 1540 20G<175 339>
VStem: 175 164<143.875 1548>
LayerCount: 2
Fore
SplineSet
455 -8 m 2
 274 -8 175 39 175 305 c 2
 175 1548 l 1
 339 1560 l 1
 339 310 l 2
 339 138 359 127 484 118 c 2
 537 114 l 1
 523 -8 l 1
 455 -8 l 2
EndSplineSet
EndChar

StartChar: m
Encoding: 109 109 81
Width: 1789
Flags: W
HStem: 0 21G<150 314 820 984 1490 1654> 980 126<465.342 732.761 1149.65 1407.11> 1062 20G<150 287.751>
VStem: 150 164<0 795.417> 150 136<918.268 1082> 820 164<0 796.196> 1490 164<0 884.21>
LayerCount: 2
Fore
SplineSet
314 639 m 1xd6
 314 0 l 1
 150 0 l 1xd6
 150 1082 l 1
 286 1082 l 1xae
 305 865 l 1
 373 1038 498 1106 636 1106 c 0
 805 1106 913 1002 951 845 c 1
 1025 1030 1159 1106 1311 1106 c 0
 1531 1106 1654 965 1654 699 c 2
 1654 0 l 1
 1490 0 l 1
 1490 646 l 2
 1490 801 1464 980 1285 980 c 0
 1151 980 984 849 984 593 c 2
 984 0 l 1
 820 0 l 1
 820 609 l 2
 820 864 761 980 609 980 c 0
 439 980 340 830 314 639 c 1xd6
EndSplineSet
EndChar

StartChar: n
Encoding: 110 110 82
Width: 1192
Flags: W
HStem: 0 21G<161 325 875 1039> 980 126<480.404 790.498> 1062 20G<161 298.682>
VStem: 161 164<0 814.326> 161 136<911.561 1082> 875 164<0 886.481>
LayerCount: 2
Fore
SplineSet
325 611 m 2xd4
 325 0 l 1
 161 0 l 1xd4
 161 1082 l 1
 297 1082 l 1xac
 315 868 l 1
 383 1041 513 1106 685 1106 c 0
 929 1106 1039 945 1039 650 c 2
 1039 0 l 1
 875 0 l 1
 875 669 l 2
 875 851 826 980 656 980 c 0
 420 980 325 808 325 611 c 2xd4
EndSplineSet
EndChar

StartChar: o
Encoding: 111 111 83
Width: 1192
Flags: W
HStem: -20 126<437.302 754.698> 980 126<442.922 749.078>
VStem: 112 170<286.714 793.9> 910 170<286.714 793.9>
LayerCount: 2
Fore
SplineSet
596 1106 m 0
 912 1106 1080 886 1080 542 c 0
 1080 206 908 -20 596 -20 c 0
 284 -20 112 206 112 542 c 0
 112 886 280 1106 596 1106 c 0
596 106 m 0
 817 106 910 294 910 541 c 0
 910 794 816 980 596 980 c 0
 376 980 282 794 282 541 c 0
 282 294 375 106 596 106 c 0
EndSplineSet
EndChar

StartChar: p
Encoding: 112 112 84
Width: 1192
Flags: W
HStem: -456 21G<156 320> -20 126<424.14 765.602> 980 126<469.086 775.902> 1062 20G<156 293.511>
VStem: 156 164<-456 87 190.381 825.701> 156 136<892.259 1082> 908 170<277.217 822.051>
LayerCount: 2
Fore
SplineSet
610 106 m 0xe2
 820 106 908 277 908 541 c 0
 908 791 844 980 630 980 c 0
 403 980 313 808 313 558 c 2
 313 246 l 1
 382 150 490 106 610 106 c 0xe2
320 -68 m 1xea
 320 -456 l 1
 156 -456 l 1xea
 156 1082 l 1
 292 1082 l 1xd6
 309 857 l 1
 364 1028 490 1106 649 1106 c 0
 942 1106 1078 878 1078 539 c 0
 1078 210 901 -20 618 -20 c 0
 487 -20 384 19 315 87 c 1
 320 -68 l 1xea
EndSplineSet
EndChar

StartChar: q
Encoding: 113 113 85
Width: 1192
Flags: W
HStem: -456 21G<869 1033> -20 126<435.111 783.76> 980 126<432.358 769.799> 1062 20G<895.378 1033>
VStem: 112 169<287.245 799.17> 876 157<-456 85 183.6 888.568> 897 136<971 1082>
LayerCount: 2
Fore
SplineSet
590 980 m 0xec
 380 980 281 809 281 545 c 0
 281 272 378 106 592 106 c 0
 711 106 817 147 876 228 c 1
 876 840 l 1
 807 936 710 980 590 980 c 0xec
872 85 m 1
 786 0 670 -20 584 -20 c 0
 277 -20 112 207 112 544 c 0
 112 882 291 1106 586 1106 c 0xec
 724 1106 825 1049 888 971 c 1
 897 1082 l 1
 1033 1082 l 1xda
 1033 -456 l 1
 869 -456 l 1
 869 -19 l 1
 872 85 l 1
EndSplineSet
EndChar

StartChar: r
Encoding: 114 114 86
Width: 766
Flags: W
HStem: 0 21G<169 333> 959 137<482.153 695>
VStem: 169 164<0 806.217> 169 131<899.614 1082>
LayerCount: 2
Fore
SplineSet
333 0 m 1xe0
 169 0 l 1xe0
 169 1082 l 1
 300 1082 l 1xd0
 318 853 l 1
 394 1036 508 1096 634 1096 c 0
 664 1096 685 1095 708 1091 c 1
 695 959 l 1
 657 959 l 2
 432 959 333 803 333 614 c 2
 333 0 l 1xe0
EndSplineSet
EndChar

StartChar: s
Encoding: 115 115 87
Width: 965
Flags: W
HStem: -20 122<300.358 660.828> 980 126<329.487 680.397>
VStem: 114 159<717.185 926.415> 728 149<168.394 410.685>
LayerCount: 2
Fore
SplineSet
752 877 m 1
 706 934 619 980 500 980 c 0
 341 980 273 917 273 820 c 0
 273 730 307 695 519 636 c 0
 834 548 877 440 877 311 c 0
 877 74 705 -20 497 -20 c 0
 329 -20 170 38 84 147 c 1
 172 233 l 1
 185 233 l 1
 271 134 395 102 499 102 c 0
 645 102 728 167 728 309 c 0
 728 389 698 440 477 500 c 0
 148 589 114 682 114 818 c 0
 114 996 263 1106 503 1106 c 0
 677 1106 794 1038 856 952 c 1
 762 877 l 1
 752 877 l 1
EndSplineSet
EndChar

StartChar: t
Encoding: 116 116 88
Width: 789
Flags: W
HStem: -8 117<424.237 655> 980 102<67 235 399 678>
VStem: 235 164<141.66 980 1082 1215.57> 266 133<1217.49 1372>
LayerCount: 2
Fore
SplineSet
663 109 m 1xe0
 655 -8 l 1
 576 -8 l 2
 277 -8 235 69 235 325 c 2
 235 980 l 1xe0
 63 980 l 1
 67 1073 l 1
 239 1081 l 1
 266 1372 l 1
 399 1382 l 1xd0
 399 1082 l 1
 678 1082 l 1
 678 980 l 1
 399 980 l 1
 399 325 l 2
 399 150 404 120 569 113 c 2
 663 109 l 1xe0
EndSplineSet
EndChar

StartChar: u
Encoding: 117 117 89
Width: 1192
Flags: W
HStem: -20 123<406.584 742.159> 0 21G<887.647 1031> 1062 20G<150 314 867 1031>
VStem: 150 164<199.33 1082> 867 164<203.631 1082> 889 142<0 133>
LayerCount: 2
Fore
SplineSet
314 403 m 2xb4
 314 217 377 103 556 103 c 0
 735 103 824 198 867 254 c 1
 867 1082 l 1
 1031 1082 l 1xb8
 1031 0 l 1
 889 0 l 1x74
 880 133 l 1
 807 42 697 -20 539 -20 c 0
 282 -20 150 122 150 404 c 2
 150 1082 l 1
 314 1082 l 1
 314 403 l 2xb4
EndSplineSet
EndChar

StartChar: v
Encoding: 118 118 90
Width: 1079
Flags: W
HStem: 0 21G<453.717 635.19> 1062 20G<67 242.028 844.107 1017>
LayerCount: 2
Fore
SplineSet
628 0 m 1
 461 0 l 1
 67 1082 l 1
 235 1082 l 1
 546 197 l 1
 851 1082 l 1
 1017 1082 l 1
 628 0 l 1
EndSplineSet
EndChar

StartChar: w
Encoding: 119 119 91
Width: 1505
Flags: W
HStem: 0 21G<310.455 469.182 1032.69 1191.23> 1062 20G<16 176.335 648.96 838.495 1312.12 1469>
LayerCount: 2
Fore
SplineSet
1039 0 m 1
 748 922 l 1
 463 0 l 1
 316 0 l 1
 16 1082 l 1
 171 1082 l 1
 398 231 l 1
 655 1082 l 1
 832 1082 l 1
 1109 229 l 1
 1317 1082 l 1
 1469 1082 l 1
 1186 0 l 1
 1039 0 l 1
EndSplineSet
EndChar

StartChar: x
Encoding: 120 120 92
Width: 1050
Flags: W
HStem: 0 21G<54 234.519 789.574 988> 1062 20G<76 274.43 803.57 985>
LayerCount: 2
Fore
SplineSet
803 0 m 1
 513 432 l 1
 221 0 l 1
 54 0 l 1
 434 549 l 1
 76 1082 l 1
 261 1082 l 1
 539 668 l 1
 817 1082 l 1
 985 1082 l 1
 618 551 l 1
 988 0 l 1
 803 0 l 1
EndSplineSet
EndChar

StartChar: y
Encoding: 121 121 93
Width: 1136
Flags: W
HStem: -410 21G<398.515 494.882> 1062 20G<48 228.331 904.182 1075>
LayerCount: 2
Fore
SplineSet
487 -410 m 1
 341 -377 l 1
 498 24 l 1
 48 1082 l 1
 220 1082 l 1
 577 225 l 1
 912 1082 l 1
 1075 1082 l 1
 487 -410 l 1
EndSplineSet
EndChar

StartChar: z
Encoding: 122 122 94
Width: 1022
Flags: W
HStem: 0 127<286 889> 960 122<132 716>
LayerCount: 2
Fore
SplineSet
897 0 m 1
 105 0 l 1
 105 110 l 1
 716 960 l 1
 132 960 l 1
 126 1082 l 1
 888 1082 l 1
 888 966 l 1
 286 127 l 1
 889 127 l 1
 897 0 l 1
EndSplineSet
EndChar

StartChar: braceleft
Encoding: 123 123 95
Width: 852
Flags: W
HStem: -256 121<591.294 725> 538 142<192 352.125> 1355 121<591.294 725>
VStem: 391 176<-112.041 500.799 720.691 1332.04>
LayerCount: 2
Fore
SplineSet
391 91 m 2
 391 255 l 2
 391 476 390 538 192 538 c 1
 192 680 l 1
 389 680 391 744 391 970 c 2
 391 1129 l 2
 391 1423 421 1476 725 1476 c 1
 725 1355 l 1
 573 1355 567 1324 567 1116 c 2
 567 884 l 2
 567 706 521 635 369 609 c 1
 521 583 567 512 567 334 c 2
 567 104 l 2
 567 -104 573 -135 725 -135 c 1
 725 -256 l 1
 421 -256 391 -203 391 91 c 2
EndSplineSet
EndChar

StartChar: bar
Encoding: 124 124 96
Width: 681
Flags: W
HStem: 1540 20G<262 408>
VStem: 262 146<-122 1560>
LayerCount: 2
Fore
SplineSet
408 -122 m 1
 262 -122 l 1
 262 1560 l 1
 408 1560 l 1
 408 -122 l 1
EndSplineSet
EndChar

StartChar: braceright
Encoding: 125 125 97
Width: 852
Flags: W
HStem: -256 121<122 255.706> 538 142<494.875 655> 1355 121<122 255.706>
VStem: 280 176<-112.041 500.799 720.691 1332.04>
LayerCount: 2
Fore
SplineSet
655 680 m 1
 655 538 l 1
 457 538 456 476 456 255 c 2
 456 91 l 2
 456 -203 426 -256 122 -256 c 1
 122 -135 l 1
 274 -135 280 -104 280 104 c 2
 280 334 l 2
 280 512 326 583 478 609 c 1
 326 635 280 706 280 884 c 2
 280 1116 l 2
 280 1324 274 1355 122 1355 c 1
 122 1476 l 1
 426 1476 456 1423 456 1129 c 2
 456 970 l 2
 456 744 458 680 655 680 c 1
EndSplineSet
EndChar

StartChar: asciitilde
Encoding: 126 126 98
Width: 1192
Flags: W
HStem: 505 131<677.884 941.412> 653 132<237.487 518.399>
LayerCount: 2
Fore
SplineSet
355 653 m 0
 267 653 186 579 140 491 c 1
 99 587 l 1
 144 698 230 785 358 785 c 0
 437 785 494 762 594 717 c 1
 689 676 768 636 828 636 c 0
 910 636 990 709 1028 795 c 1
 1075 706 l 1
 1026 582 949 505 826 505 c 0
 757 505 685 534 604 571 c 0
 500 618 425 653 355 653 c 0
EndSplineSet
EndChar

StartChar: degree
Encoding: 176 176 99
Width: 880
Flags: W
HStem: 889 96<309.369 552.923> 1380 96<309.874 552.153>
VStem: 131 108<1055.43 1310.46> 623 108<1053.89 1310.46>
LayerCount: 2
Fore
SplineSet
430 985 m 0
 537 985 623 1066 623 1183 c 0
 623 1300 537 1380 431 1380 c 0
 326 1380 239 1300 239 1183 c 0
 239 1065 324 985 430 985 c 0
430 889 m 0
 273 889 131 1009 131 1184 c 0
 131 1357 273 1476 430 1476 c 0
 590 1476 731 1357 731 1184 c 0
 731 1016 594 889 430 889 c 0
EndSplineSet
EndChar

StartChar: cent
Encoding: 162 162 100
Width: 1164
Flags: W
HStem: -17 123<474.605 538 692 800.144> 980 122<474.605 564 720 797>
VStem: 146 170<285.849 798.303> 538 114<-310 -204.989> 608 112<1296.84 1391>
LayerCount: 2
Fore
SplineSet
146 543 m 0xf0
 146 861 307 1071 564 1102 c 1
 608 1391 l 1
 720 1391 l 1
 720 1100 l 1xe8
 899 1074 981 968 1018 879 c 1
 916 820 l 1
 902 820 l 1
 850 911 779 980 638 980 c 0
 422 980 316 815 316 543 c 0
 316 271 422 106 638 106 c 0
 779 106 848 172 900 263 c 1
 914 263 l 1
 1018 207 l 1
 980 113 891 2 692 -17 c 1
 652 -310 l 1
 538 -310 l 1
 538 -12 l 1
 296 29 146 236 146 543 c 0xf0
EndSplineSet
EndChar

StartChar: sterling
Encoding: 163 163 101
Width: 1136
Flags: W
HStem: 0 134<419 1003> 0 115<83 216.047> 683 123<71 243 419 802> 1334 142<535.725 838.899>
VStem: 243 176<134 683 806 1198.85>
LayerCount: 2
Fore
SplineSet
676 1334 m 0x78
 507 1334 419 1207 419 949 c 2
 419 806 l 1
 802 806 l 1
 802 683 l 1
 419 683 l 1
 419 134 l 1
 1016 134 l 1
 1003 0 l 1xb8
 83 0 l 1
 71 115 l 1
 243 132 l 1
 243 683 l 1
 71 683 l 1
 71 806 l 1
 243 806 l 1
 243 953 l 2
 243 1216 330 1476 661 1476 c 0
 835 1476 936 1405 1004 1338 c 1
 941 1226 l 1
 924 1226 l 1
 854 1284 791 1334 676 1334 c 0x78
EndSplineSet
EndChar

StartChar: section
Encoding: 167 167 102
Width: 1079
Flags: W
HStem: -20 125<300.647 676.749> 1349 127<366.586 745.895>
VStem: 167 153<689.662 904.884 1088.76 1303.82> 735 147<161.86 393.38 568.141 791.121>
LayerCount: 2
Fore
SplineSet
320 1191 m 0
 320 1105 351 1079 487 1037 c 2
 592 1004 l 2
 829 930 882 849 882 687 c 0
 882 603 857 538 815 490 c 1
 866 438 882 375 882 287 c 0
 882 69 715 -20 521 -20 c 0
 411 -20 293 9 190 58 c 1
 190 196 l 1
 313 137 417 105 533 105 c 0
 660 105 735 170 735 290 c 0
 735 369 691 421 532 472 c 2
 416 509 l 2
 215 573 167 660 167 789 c 0
 167 869 196 940 251 990 c 1
 186 1043 167 1108 167 1188 c 0
 167 1356 290 1476 517 1476 c 0
 643 1476 749 1447 840 1402 c 1
 801 1280 l 1
 742 1309 645 1349 534 1349 c 0
 373 1349 320 1288 320 1191 c 0
385 920 m 1
 337 892 320 850 320 792 c 0
 320 705 351 680 487 636 c 1
 592 604 l 1
 631 591 665 579 695 566 c 1
 721 595 735 638 735 690 c 0
 735 768 691 821 532 871 c 2
 416 908 l 2
 405 911 395 915 385 920 c 1
EndSplineSet
EndChar

StartChar: paragraph
Encoding: 182 182 103
Width: 1136
Flags: W
HStem: -20 21G<498 622 798 922> 1334 122<622 798 922 1038>
VStem: 116 506<937.629 1287.23> 498 124<-20 771> 798 124<-20 1334>
LayerCount: 2
Fore
SplineSet
498 -20 m 1xd8
 498 771 l 1xd8
 217 771 116 942 116 1117 c 0xe8
 116 1276 209 1456 529 1456 c 2
 1038 1456 l 1
 1038 1334 l 1
 922 1334 l 1
 922 -20 l 1
 798 -20 l 1
 798 1334 l 1
 622 1334 l 1
 622 -20 l 1
 498 -20 l 1xd8
EndSplineSet
EndChar

StartChar: registered
Encoding: 174 174 104
Width: 1846
Flags: W
HStem: -20 84<699.172 1145.61> 721 97<744 978.537> 1111 98<744 1117.37> 1391 85<699.172 1145.61>
VStem: 180 104<474.709 980.844> 632 110<292 721 818 1111> 1146 108<849.523 1082.66> 1564 102<474.709 980.644>
LayerCount: 2
Fore
SplineSet
632 292 m 1
 632 1209 l 1
 944 1209 l 2
 1173 1209 1254 1134 1254 972 c 0
 1254 837 1193 749 1064 735 c 1
 1080 713 1286 292 1286 292 c 1
 1164 292 l 1
 1164 292 965 710 956 721 c 1
 742 721 l 1
 742 292 l 1
 632 292 l 1
744 818 m 1
 964 818 l 2
 1103 818 1146 861 1146 968 c 0
 1146 1093 1087 1111 928 1111 c 2
 744 1111 l 1
 744 818 l 1
922 64 m 0
 1249 64 1564 295 1564 728 c 0
 1564 1159 1249 1391 922 1391 c 0
 596 1391 284 1160 284 728 c 0
 284 295 596 64 922 64 c 0
922 -20 m 0
 552 -20 180 236 180 728 c 0
 180 1219 552 1476 922 1476 c 0
 1293 1476 1666 1219 1666 728 c 0
 1666 236 1293 -20 922 -20 c 0
EndSplineSet
EndChar

StartChar: copyright
Encoding: 169 169 105
Width: 1704
Flags: W
HStem: -20 84<617.258 1075.02> 234 95<699.542 1065.35> 1119 96<694.912 1044.96> 1389 87<601.567 1090.7>
VStem: 93 97<474.202 980.4> 387 122<526.79 920.307> 1505 106<474.403 980.4>
LayerCount: 2
Fore
SplineSet
865 234 m 0
 606 234 387 436 387 725 c 0
 387 1005 600 1215 857 1215 c 0
 959 1215 1057 1186 1145 1127 c 1
 1102 1041 l 1
 1028 1094 934 1119 861 1119 c 0
 667 1119 509 958 509 729 c 0
 509 483 668 329 869 329 c 0
 949 329 1028 347 1114 400 c 1
 1148 316 l 1
 1062 261 965 234 865 234 c 0
845 64 m 0
 1181 64 1505 296 1505 727 c 0
 1505 1160 1181 1389 845 1389 c 0
 511 1389 190 1160 190 727 c 0
 190 295 511 64 845 64 c 0
845 -20 m 0
 467 -20 93 236 93 727 c 0
 93 1220 467 1476 845 1476 c 0
 1226 1476 1611 1220 1611 727 c 0
 1611 236 1227 -20 845 -20 c 0
EndSplineSet
EndChar

StartChar: acute
Encoding: 180 180 106
Width: 681
Flags: W
HStem: 1044 412
VStem: 194 354
LayerCount: 2
Fore
SplineSet
194 1044 m 1
 377 1456 l 1
 548 1456 l 1
 548 1422 l 1
 291 1044 l 1
 194 1044 l 1
EndSplineSet
EndChar

StartChar: dieresis
Encoding: 168 168 107
Width: 880
Flags: W
HStem: 1284 192<264.85 424.684 627.81 786.917>
VStem: 252 186<1297.2 1463.03> 615 185<1297.2 1463.03>
LayerCount: 2
Fore
SplineSet
707 1284 m 0
 654 1284 615 1324 615 1380 c 0
 615 1437 654 1476 707 1476 c 0
 760 1476 800 1437 800 1380 c 0
 800 1324 760 1284 707 1284 c 0
345 1284 m 0
 291 1284 252 1324 252 1380 c 0
 252 1437 291 1476 345 1476 c 0
 397 1476 438 1437 438 1380 c 0
 438 1324 397 1284 345 1284 c 0
EndSplineSet
EndChar

StartChar: plusminus
Encoding: 177 177 108
Width: 1136
Flags: W
HStem: 0 118<105 1034> 610 119<126 498 624 989>
VStem: 498 126<212 610 729 1117>
LayerCount: 2
Fore
SplineSet
1034 0 m 1
 105 0 l 1
 105 118 l 1
 1034 118 l 1
 1034 0 l 1
498 212 m 1
 498 610 l 1
 126 610 l 1
 126 729 l 1
 498 729 l 1
 498 1117 l 1
 623 1117 l 1
 623 729 l 1
 989 729 l 1
 989 610 l 1
 624 610 l 1
 624 212 l 1
 498 212 l 1
EndSplineSet
EndChar

StartChar: yen
Encoding: 165 165 109
Width: 1249
Flags: W
HStem: 0 21G<538 714> 421 107<192 530 726 1002> 719 107<154 368 886 1040> 1436 20G<26 199.005 1039.35 1224>
VStem: 538 176<0 421>
LayerCount: 2
Fore
SplineSet
1002 421 m 1
 714 421 l 1
 714 0 l 1
 538 0 l 1
 538 421 l 1
 192 421 l 1
 192 528 l 1
 530 528 l 1
 426 719 l 1
 154 719 l 1
 154 826 l 1
 368 826 l 1
 26 1456 l 1
 188 1456 l 1
 626 660 l 1
 1050 1456 l 1
 1224 1456 l 1
 886 826 l 1
 1040 826 l 1
 1040 719 l 1
 828 719 l 1
 726 528 l 1
 1002 528 l 1
 1002 421 l 1
EndSplineSet
EndChar

StartChar: ordfeminine
Encoding: 170 170 111
Width: 1107
Flags: W
HStem: 552 123<347.562 685.236> 1067 113<368.537 808.186> 1553 126<377.141 727.325>
VStem: 132 158<733.907 994.674> 812 164<777.365 1056.71 1167 1468.48> 834 142<573 707>
LayerCount: 2
Fore
SplineSet
483 552 m 0xf4
 273 552 132 655 132 866 c 0
 132 1055 251 1180 570 1180 c 0
 621 1180 728 1176 812 1167 c 1
 812 1295 l 2
 812 1475 731 1553 568 1553 c 0
 434 1553 346 1517 252 1394 c 1
 242 1394 l 1
 160 1484 l 1
 249 1613 376 1679 568 1679 c 0
 809 1679 976 1574 976 1285 c 2xf8
 976 573 l 1
 834 573 l 1
 824 707 l 1
 738 601 629 552 483 552 c 0xf4
290 865 m 0
 290 724 382 675 502 675 c 0
 632 675 741 734 812 825 c 1
 812 1052 l 1
 734 1062 631 1067 586 1067 c 0
 356 1067 290 988 290 865 c 0
EndSplineSet
EndChar

StartChar: ordmasculine
Encoding: 186 186 112
Width: 965
Flags: W
HStem: 713 107<357.218 611.144> 1370 107<359.356 603.791>
VStem: 144 137<900.401 1287.22> 686 130<900.644 1280.77>
LayerCount: 2
Fore
SplineSet
281 1092 m 0
 281 921 347 820 480 820 c 0
 620 820 686 920 686 1089 c 0
 686 1263 616 1370 480 1370 c 0
 348 1370 281 1265 281 1092 c 0
816 1092 m 0
 816 878 686 713 480 713 c 0
 262 713 144 875 144 1092 c 0
 144 1314 262 1477 480 1477 c 0
 704 1477 816 1317 816 1092 c 0
EndSplineSet
EndChar

StartChar: questiondown
Encoding: 191 191 113
Width: 908
Flags: W
HStem: -383 134<352.398 657.296> 880 227<413.851 600.742>
VStem: 129 159<-182.426 136.183> 393 229<900.725 1086.22>
LayerCount: 2
Fore
SplineSet
486 -249 m 0
 592 -249 687 -191 729 -162 c 1
 762 -288 l 1
 689 -343 592 -383 468 -383 c 0
 289 -383 129 -286 129 -38 c 0
 129 258 364 306 463 670 c 1
 546 670 l 1
 537 363 288 186 288 -33 c 0
 288 -179 361 -249 486 -249 c 0
507 1107 m 0
 586 1107 622 1051 622 993 c 0
 622 936 586 880 507 880 c 0
 428 880 393 936 393 993 c 0
 393 1053 428 1107 507 1107 c 0
EndSplineSet
EndChar

StartChar: exclamdown
Encoding: 161 161 114
Width: 710
Flags: W
HStem: 872 235<252.489 437.511>
VStem: 230 230<893.99 1084.96> 261 176<-363 -17.0618>
LayerCount: 2
Fore
SplineSet
379 665 m 1xa0
 437 -241 l 1
 437 -363 l 1
 261 -363 l 1
 261 -241 l 1
 313 665 l 1
 379 665 l 1xa0
345 1107 m 0
 425 1107 460 1047 460 989 c 0
 460 932 425 872 345 872 c 0
 265 872 230 932 230 989 c 0xc0
 230 1049 265 1107 345 1107 c 0
EndSplineSet
EndChar

StartChar: logicalnot
Encoding: 172 172 115
Width: 1249
Flags: W
HStem: 676 128<105 940>
VStem: 940 121<253 676>
LayerCount: 2
Fore
SplineSet
940 253 m 1
 940 676 l 1
 105 676 l 1
 105 804 l 1
 1061 804 l 1
 1061 253 l 1
 940 253 l 1
EndSplineSet
EndChar

StartChar: guillemotleft
Encoding: 171 171 116
Width: 994
Flags: W
LayerCount: 2
Fore
SplineSet
370 148 m 1
 86 549 l 1
 374 953 l 1
 535 953 l 1
 251 552 l 1
 527 148 l 1
 370 148 l 1
723 148 m 1
 439 549 l 1
 726 953 l 1
 887 953 l 1
 603 552 l 1
 880 148 l 1
 723 148 l 1
EndSplineSet
EndChar

StartChar: guillemotright
Encoding: 187 187 117
Width: 994
Flags: W
LayerCount: 2
Fore
SplineSet
250 148 m 1
 93 148 l 1
 370 552 l 1
 86 953 l 1
 247 953 l 1
 534 549 l 1
 250 148 l 1
603 148 m 1
 446 148 l 1
 722 552 l 1
 438 953 l 1
 599 953 l 1
 887 549 l 1
 603 148 l 1
EndSplineSet
EndChar

StartChar: currency
Encoding: 164 164 118
Width: 1164
Flags: W
HStem: 307 91<416.962 737.666> 1041 92<416.962 737.289>
VStem: 175 97<547.885 891.82> 883 96<547.429 890.936>
LayerCount: 2
Fore
SplineSet
577 398 m 0
 766 398 883 546 883 719 c 0
 883 892 765 1041 577 1041 c 0
 390 1041 272 892 272 719 c 0
 272 545 390 398 577 398 c 0
1017 225 m 1
 836 399 l 1
 765 340 676 307 577 307 c 0
 477 307 390 339 318 400 c 1
 138 226 l 1
 75 293 l 1
 256 469 l 1
 202 542 175 627 175 719 c 0
 175 810 202 896 256 969 c 1
 74 1148 l 1
 138 1212 l 1
 317 1039 l 1
 389 1100 479 1133 577 1133 c 0
 675 1133 765 1098 836 1038 c 1
 1017 1212 l 1
 1078 1145 l 1
 898 969 l 1
 952 893 979 808 979 719 c 0
 979 625 952 540 899 469 c 1
 1077 292 l 1
 1017 225 l 1
EndSplineSet
EndChar

StartChar: periodcentered
Encoding: 183 183 119
Width: 653
Flags: W
HStem: 514 218<226.727 408.994>
VStem: 207 222<534.604 711.824>
LayerCount: 2
Fore
SplineSet
207 624 m 0
 207 688 254 732 318 732 c 0
 381 732 429 688 429 624 c 0
 429 559 381 514 318 514 c 0
 254 514 207 559 207 624 c 0
EndSplineSet
EndChar

StartChar: macron
Encoding: 175 175 120
Width: 908
Flags: W
HStem: 1231 122<252 837>
VStem: 252 585<1231 1353>
LayerCount: 2
Fore
SplineSet
252 1231 m 1
 252 1353 l 1
 837 1353 l 1
 837 1231 l 1
 252 1231 l 1
EndSplineSet
EndChar

StartChar: cedilla
Encoding: 184 184 121
Width: 766
Flags: W
HStem: -387 100<272.049 494.369> -132 89<383.938 501.711>
VStem: 507 140<-271.704 -140.129>
LayerCount: 2
Fore
SplineSet
394 -287 m 0
 461 -287 507 -255 507 -199 c 0
 507 -155 472 -132 413 -132 c 0
 404 -132 393 -133 383 -134 c 1
 383 -60 l 1
 413 -49 444 -43 475 -43 c 0
 565 -43 647 -92 647 -199 c 0
 647 -312 544 -387 399 -387 c 0
 344 -387 295 -376 252 -356 c 1
 282 -264 l 1
 324 -280 362 -287 394 -287 c 0
EndSplineSet
EndChar

StartChar: uni00AD
Encoding: 173 173 122
Width: 1022
Flags: W
HStem: 205 136<137 879>
LayerCount: 2
Fore
SplineSet
137 205 m 1
 137 341 l 1
 879 341 l 1
 879 205 l 1
 137 205 l 1
EndSplineSet
EndChar

StartChar: uni00B2
Encoding: 178 178 124
Width: 823
Flags: W
HStem: 649 99<302 674> 1425 100<284.027 536.016>
VStem: 573 112<1148.89 1386.62>
LayerCount: 2
Fore
SplineSet
674 748 m 1
 674 649 l 1
 159 649 l 1
 159 741 l 1
 399 988 573 1144 573 1269 c 0
 573 1378 505 1425 428 1425 c 0
 346 1425 266 1388 202 1300 c 1
 131 1360 l 1
 182 1459 303 1525 416 1525 c 0
 571 1525 685 1441 685 1278 c 0
 685 1085 514 947 302 748 c 1
 674 748 l 1
EndSplineSet
EndChar

StartChar: uni00B9
Encoding: 185 185 125
Width: 795
Flags: W
HStem: 598 112<185 339 477 616>
VStem: 339 138<710 1338>
LayerCount: 2
Fore
SplineSet
185 598 m 1
 185 710 l 1
 339 710 l 1
 339 1338 l 1
 302 1314 209 1277 175 1264 c 1
 175 1378 l 1
 211 1391 325 1442 367 1482 c 1
 477 1482 l 1
 477 710 l 1
 616 710 l 1
 616 598 l 1
 185 598 l 1
EndSplineSet
EndChar

StartChar: uni00B3
Encoding: 179 179 126
Width: 823
Flags: W
HStem: 615 116<238.763 508.81> 1019 116<276 487.75> 1381 115<240.666 500.945>
VStem: 524 131<1172.13 1359.56> 543 131<764.708 974.871>
LayerCount: 2
Fore
SplineSet
413 615 m 0xe8
 331 615 212 641 152 704 c 1
 201 803 l 1
 250 757 339 731 401 731 c 0
 480 731 543 778 543 877 c 0xe8
 543 972 460 1019 350 1019 c 2
 276 1019 l 1
 276 1135 l 1
 347 1135 l 2
 447 1135 524 1177 524 1260 c 0
 524 1342 473 1381 403 1381 c 0
 336 1381 244 1351 204 1310 c 1
 150 1399 l 1
 206 1461 321 1496 408 1496 c 0
 533 1496 655 1419 655 1262 c 0xf0
 655 1198 617 1111 511 1084 c 1
 616 1053 674 973 674 873 c 0
 674 712 558 615 413 615 c 0xe8
EndSplineSet
EndChar

